{
	"asset":{
		"generator":"Khronos glb Blender I/O v4.5.47",
		"version":"2.0"
	},
	"scene":0,
	"scenes":[
		{
			"name":"Scene",
			"nodes":[
				2,
				3
			]
		}
	],
	"nodes":[
		{
			"mesh":0,
			"name":"Object_2",
			"rotation":[
				-1,
				0,
				0,
				6.2780464217559485e-15
			],
			"scale":[
				0.004999999888241291,
				0.007000000216066837,
				0.012000000104308128
			],
			"translation":[
				0,
				-0.5478997826576233,
				0
			]
		},
		{
			"children":[
				0
			],
			"name":"825b925052bc496eaf9d8d8170a39d0a.obj.cleaner.materialmerger.gle"
		},
		{
			"children":[
				1
			],
			"name":"Sketchfab_model",
			"rotation":[
				-0.70710688829422,
				0,
				0,
				0.7071066498756409
			]
		},
		{
			"name":"\u30a8\u30f3\u30d7\u30c6\u30a3",
			"rotation":[
				0,
				0.7071068286895752,
				0.7071068286895752,
				3.090862321641907e-08
			],
			"scale":[
				0.699999988079071,
				0.699999988079071,
				0.699999988079071
			],
			"translation":[
				0,
				0,
				0.08432717621326447
			]
		}
	],
	"materials":[
		{
			"doubleSided":true,
			"name":"default",
			"pbrMetallicRoughness":{
				"metallicFactor":0,
				"roughnessFactor":0.6000000238418579
			}
		}
	],
	"meshes":[
		{
			"name":"Object_0",
			"primitives":[
				{
					"attributes":{
						"POSITION":0,
						"NORMAL":1,
						"TEXCOORD_0":2
					},
					"indices":3,
					"material":0
				}
			]
		}
	],
	"accessors":[
		{
			"bufferView":0,
			"componentType":5126,
			"count":3867,
			"max":[
				414.1969299316406,
				60.5,
				129
			],
			"min":[
				-394,
				-60.5,
				-152.56857299804688
			],
			"type":"VEC3"
		},
		{
			"bufferView":1,
			"componentType":5126,
			"count":3867,
			"type":"VEC3"
		},
		{
			"bufferView":2,
			"componentType":5126,
			"count":3867,
			"type":"VEC2"
		},
		{
			"bufferView":3,
			"componentType":5123,
			"count":20580,
			"type":"SCALAR"
		}
	],
	"bufferViews":[
		{
			"buffer":0,
			"byteLength":46404,
			"byteOffset":0,
			"target":34962
		},
		{
			"buffer":0,
			"byteLength":46404,
			"byteOffset":46404,
			"target":34962
		},
		{
			"buffer":0,
			"byteLength":30936,
			"byteOffset":92808,
			"target":34962
		},
		{
			"buffer":0,
			"byteLength":41160,
			"byteOffset":123744,
			"target":34963
		}
	],
	"buffers":[
		{
			"byteLength":164904,
			"uri":"scene.bin"
		}
	]
}
